<svg width="46" height="44" viewBox="0 0 46 44" fill="none" xmlns="http://www.w3.org/2000/svg">
<path d="M29.9264 28.0927C33.6672 24.8806 26.8518 10.7578 15.4757 5.04751C15.4757 5.09849 15.4757 5.09849 15.5269 5.14948C16.1931 6.93395 16.603 8.56547 16.8592 10.095C17.1667 12.0324 17.2179 14.1738 16.603 16.4681C14.8095 23.555 7.89156 28.3476 0 34.3129C17.4742 23.4531 27.108 30.54 29.9264 28.0927ZM21.7274 7.54577C28.5941 11.9815 32.4886 18.0997 33.7697 23.0962C33.7185 10.9108 41.5075 3.97683 45.6583 0C40.124 2.29432 32.5399 10.7578 21.7274 7.54577ZM32.6936 31.0498C29.8752 33.4461 25.6732 31.6107 19.5239 30.9988C26.0319 32.1205 32.4886 36.1993 40.2265 44C36.7931 37.8818 34.9483 32.5794 34.1797 27.8888C33.9747 29.2654 33.5135 30.387 32.6936 31.0498Z" fill="#592C82"/>
</svg>
