<svg width="241" height="44" viewBox="0 0 241 44" fill="none" xmlns="http://www.w3.org/2000/svg">
<path d="M29.9264 28.0927C33.6672 24.8806 26.8518 10.7578 15.4757 5.04751C15.4757 5.09849 15.4757 5.09849 15.5269 5.14948C16.1931 6.93395 16.603 8.56547 16.8592 10.095C17.1667 12.0324 17.2179 14.1738 16.603 16.4681C14.8095 23.555 7.89156 28.3476 0 34.3129C17.4742 23.4531 27.108 30.54 29.9264 28.0927ZM21.7274 7.54577C28.5941 11.9815 32.4886 18.0997 33.7697 23.0962C33.7185 10.9108 41.5075 3.97683 45.6583 0C40.124 2.29432 32.5399 10.7578 21.7274 7.54577ZM32.6936 31.0498C29.8752 33.4461 25.6732 31.6107 19.5239 30.9988C26.0319 32.1205 32.4886 36.1993 40.2265 44C36.7931 37.8818 34.9483 32.5794 34.1797 27.8888C33.9747 29.2654 33.5135 30.387 32.6936 31.0498Z" fill="#592C82"/>
<path d="M108.74 33.2422V12.7972H115.35V33.2932H108.74V33.2422Z" fill="#592C82"/>
<path d="M119.552 33.2422V12.7972H126.265V29.4183H135.848V33.2422H119.552Z" fill="#592C82"/>
<path d="M139.793 33.2422V12.7972H146.506V29.4183H156.089V33.2422H139.793Z" fill="#592C82"/>
<path d="M181.25 16.5701H165.62V29.3673H181.045L181.25 33.2931H166.081C163.314 33.2931 161.469 32.9362 160.496 32.2734C159.522 31.6106 159.01 30.336 159.01 28.4496V17.5898C159.01 15.7033 159.471 14.4797 160.496 13.7659C161.469 13.1031 163.366 12.7462 166.133 12.7462H181.301L181.25 16.5701Z" fill="#592C82"/>
<path d="M190.371 12.7972V29.4183H205.129V12.7972H211.842V28.3986C211.842 30.2851 211.33 31.5087 210.356 32.2225C209.383 32.8853 207.487 33.2422 204.668 33.2422H190.832C188.065 33.2422 186.169 32.8853 185.195 32.2225C184.222 31.5597 183.709 30.2851 183.709 28.3986V12.7972H190.371Z" fill="#592C82"/>
<path d="M227.779 16.4681V33.2932H221.117V16.5191H213.943V12.8482H240.949V16.5191H227.779V16.4681Z" fill="#592C82"/>
<path d="M42.9424 33.2422V12.7972H61.2877C66.5658 12.7972 70.6141 13.664 73.4325 15.4485C76.2509 17.1819 77.6857 19.7312 77.6857 22.9942C77.6857 26.4102 76.1997 29.0104 73.1763 30.7439C70.2041 32.4774 65.6434 33.3442 59.5966 33.3442H42.9424V33.2422ZM49.6553 29.4183H58.2131C62.8763 29.4183 66.1559 28.9085 68.0519 27.8888C69.8967 26.8691 70.8703 25.1356 70.8703 22.6883C70.8703 20.5979 70.1016 19.0174 68.5643 17.9977C67.027 16.978 64.6185 16.4682 61.3902 16.4682H49.6553V29.4183Z" fill="#592C82"/>
<path d="M93.4176 25.4924H97.1584C99.4132 25.4924 101.053 25.1865 102.027 24.5747C103.051 23.9629 103.564 22.9432 103.564 21.5666V16.723C103.564 15.3464 103.051 14.3267 102.027 13.6639C101.002 13.0521 99.4132 12.7462 97.1584 12.7462H74.9186C76.8146 13.6639 78.1469 14.8876 79.1206 16.2642H94.2888C95.4674 16.2642 96.236 16.3661 96.646 16.6211C97.0559 16.876 97.3122 17.2839 97.3122 17.8957V20.241C97.3122 20.8528 97.1072 21.2607 96.646 21.5156C96.236 21.7705 95.4161 21.8725 94.2888 21.8725H81.1191C81.2728 23.0452 81.2728 24.2178 81.1703 25.3905H84.7574L96.851 33.2422H106.382L93.4176 25.4924Z" fill="#592C82"/>
</svg>
