<svg width="75" height="57" viewBox="0 0 75 57" fill="none" xmlns="http://www.w3.org/2000/svg">
<path d="M61.8683 1.74442C61.8683 1.77362 61.8105 1.77362 61.6371 1.80281C61.6082 1.80281 61.7238 1.77362 61.8683 1.74442ZM71.3474 13.1605C71.2896 13.1313 71.3185 13.4524 71.3474 13.7152V13.1605ZM72.2722 22.8831L72.3011 23.0583C72.33 23.1167 72.3589 23.1459 72.3878 23.2043L72.2722 22.8831ZM72.7057 29.6568C72.7635 29.7444 72.8213 29.8612 72.8213 30.0072C72.8502 30.0072 72.8791 29.978 72.908 29.9196C72.908 29.7444 72.7635 29.7152 72.7057 29.6568ZM74.2374 49.6568L74.1218 49.686C74.1218 49.7152 74.0929 49.7444 74.0929 49.7736L74.2374 49.6568ZM51.6377 2.32836C51.6666 2.32836 51.6666 2.32836 51.6377 2.32836C51.84 2.29916 51.7533 2.29916 51.6377 2.32836ZM0.687341 15.6422C0.74514 14.9415 0.947439 16.7225 1.00524 15.7006C0.947439 15.7882 0.716241 14.7663 0.687341 15.6422ZM36.9855 3.75902C36.9855 3.75902 36.9566 3.72982 36.841 3.70062C36.8699 3.72982 36.9277 3.75902 36.9855 3.75902ZM30.7143 4.45975C30.7432 4.45975 30.7432 4.45975 30.7721 4.45975C30.8299 4.43055 30.9455 4.40135 31.1189 4.43055C30.9744 4.43055 30.9166 4.40136 30.7143 4.45975ZM25.1366 4.9561C25.1655 4.9561 25.2233 4.9561 25.2522 4.9853C25.31 4.9853 25.3678 4.9561 25.4545 4.9561H25.1366ZM73.5727 45.8028C73.6594 45.9488 73.775 45.9196 73.8906 45.9488L74.1796 49.3065C74.2374 49.3649 74.2085 49.4233 74.2085 49.4817V49.6276H74.1218C74.1218 49.6568 74.0929 49.6568 74.0929 49.686L73.5438 49.7736C73.5727 49.8612 73.9484 49.8612 74.2085 49.8612C74.4397 49.8904 73.3126 50.2116 72.7057 50.2992C71.0584 50.416 72.33 50.0364 71.2029 50.0948L69.7579 50.3576L69.729 50.27C69.4978 50.2408 69.3533 50.3284 69.2955 50.3576C69.3822 50.2408 68.1106 50.416 67.5038 50.4452L67.735 50.5327C66.0877 50.9415 65.1051 50.5035 63.8046 50.7371L62.9087 50.9999L62.7064 50.8539C62.1862 50.9999 62.0995 51.1167 61.2036 51.1459C58.0535 51.1459 54.7589 51.7882 51.5799 51.8758C51.6088 51.905 51.7244 51.905 51.9267 51.905C49.1235 51.759 47.6207 52.6933 45.1064 52.6057L45.2798 52.5181C44.0082 52.6641 45.4532 52.4306 44.5284 52.4306C44.3839 52.6349 42.9389 52.7225 42.1875 52.8685C42.3031 52.8101 42.5632 52.8101 42.7655 52.7517C42.621 52.7225 42.5632 52.6057 42.1875 52.6933C41.4072 53.0437 39.6443 53.1605 38.3727 53.3649C38.1993 53.2481 37.0722 53.2481 36.4942 53.1021C36.3497 53.1605 36.1474 53.2773 35.9162 53.3941C35.4538 53.3649 35.107 53.4525 34.7602 53.54C35.1648 53.5108 35.5405 53.4525 35.8006 53.4233C35.8006 53.4233 35.7717 53.4233 35.7717 53.4525C35.8006 53.4525 35.8873 53.4233 35.9451 53.4233C36.2341 53.3941 36.3786 53.3649 36.2919 53.3649C36.8121 53.4524 36.263 53.4525 36.3208 53.5984C35.8873 53.6276 35.0203 53.7444 34.9336 53.6568C34.6735 53.686 34.5001 53.686 34.24 53.686C34.0955 53.7152 33.9221 53.7444 33.7198 53.7444L33.8065 53.7152C33.7776 53.686 33.7487 53.686 33.691 53.686C32.8529 53.686 31.7258 54.0072 31.0322 54.1824C31.6969 53.9488 30.8299 53.978 30.8299 53.8612C30.7432 53.8904 31.6102 53.8028 32.6506 53.7152C32.5639 53.7152 32.5061 53.686 32.4772 53.6568C31.5524 53.5984 30.9455 53.9196 29.6161 53.9488C29.7028 53.9196 29.8762 53.8904 29.7895 53.832C29.3271 53.832 28.8936 53.978 28.8069 54.0656C28.6913 53.9488 27.6798 53.9488 27.1885 54.0364C26.755 54.1824 26.8417 54.2116 26.0325 54.27L26.3793 54.1532C25.4545 54.1532 25.6279 54.3576 24.8476 54.3576C25.1655 54.3576 25.1655 54.27 24.9343 54.27C23.9806 54.416 23.9517 54.4452 23.2581 54.7079L23.3737 54.5619C22.5645 54.7079 21.0039 55.0291 20.975 54.8539C21.264 55.1167 19.1832 55.1751 18.4607 55.2335C18.7208 55.2043 18.7497 55.1459 18.7786 55.0875C17.2758 55.4087 15.7153 55.3503 14.2125 55.4963L13.9524 55.2919C13.1432 55.3795 12.9409 55.8174 12.0739 55.905L12.3918 55.759C10.8312 55.9342 10.2243 55.9634 8.95269 56.051V55.905C8.5192 56.0218 7.9412 56.051 7.5077 56.1678C7.2476 56.1094 6.84301 56.1094 6.38061 56.1386C6.14941 56.1678 5.88931 56.197 5.62921 56.2262C5.19571 56.2846 4.70442 56.3138 4.24202 56.3722C4.18422 55.905 4.15532 55.4379 4.09752 54.9707C4.06862 54.6787 4.03972 54.416 4.01082 54.124C3.98192 53.5692 3.98192 53.0437 4.01082 52.5473L3.72182 52.4598C3.66402 51.7298 3.51952 50.8247 3.69292 50.4452V50.6203C3.89522 50.6787 3.63512 49.8904 3.63512 49.4525C3.57732 49.1021 3.43282 48.7809 3.40392 49.0729C3.37503 47.1459 2.99933 44.2846 3.11493 43.0583C2.85483 41.1313 2.50803 39.7006 2.36353 37.6276L2.39243 37.6568C2.36353 36.9561 2.30573 35.5254 2.53693 35.5254C2.36353 34.0364 1.95893 33.1021 1.90113 31.2919L2.01673 31.6714C2.01673 31.2043 1.84333 30.5035 1.81443 30.3284C1.81443 30.1824 1.87223 30.27 1.90113 30.2992C1.93003 29.8612 1.78553 29.6276 1.75663 29.2773L1.84333 29.4233C1.87223 27.9926 1.38094 25.7736 1.26534 23.9342C1.32314 24.2554 1.38094 24.0802 1.40984 23.9342C1.09194 23.2043 0.976339 21.1313 0.86074 20.3722L1.00524 20.8393C0.716241 19.3503 1.14974 19.5254 0.86074 18.0656L0.80294 18.9415C0.80294 18.3284 0.68734 17.832 0.600641 17.978C0.629541 17.2773 0.77404 17.8612 0.716241 16.8101C0.77404 16.7517 0.83184 17.5692 0.889639 17.2189L0.947439 15.7298C0.947439 15.7006 0.947439 15.6714 0.947439 15.613V15.7298C0.976339 15.6714 0.947439 15.4962 0.889639 15.0291C0.600641 15.1751 0.77404 13.8028 0.513942 14.5911C0.311643 12.5181 0.369442 10.7371 0.0515442 8.9561C0.080444 8.89771 0.0804442 8.81011 0.109344 8.72252C0.109344 8.66413 0.109344 8.63493 0.109344 8.57654V8.48895C0.109344 8.45975 0.109344 8.40135 0.109344 8.37216C0.109344 8.02179 0.080444 7.64223 0.0515442 7.23347C0.427242 7.20428 0.83184 7.17508 1.20754 7.14588C1.52544 7.11668 1.69883 7.11668 1.93003 7.11668C2.33463 7.11668 2.59473 7.14588 2.53693 7.26267C3.54842 7.17508 4.32872 7.02909 4.93562 6.82471C4.73332 6.82471 4.47322 6.88311 4.27092 6.9123C4.53102 6.79552 5.71591 6.67873 6.23611 6.62033C5.60031 6.76632 4.53102 6.9415 4.03972 7.14588C4.93562 7.02909 6.20721 6.76632 6.69851 6.67873L6.9586 6.85391C7.71 6.64953 7.6233 6.9707 8.3747 6.67873L8.2302 6.62033C9.64629 6.50354 9.64629 6.29917 10.9468 6.15318L10.889 6.24077C11.3514 6.24077 11.9872 5.978 12.4496 6.12398L11.6115 6.21157C11.6982 6.35756 12.3629 6.35756 12.6808 6.38676C13.5767 6.26997 12.9698 6.12398 13.4322 6.06559C13.6345 6.18238 13.49 6.12398 13.1721 6.29917C14.1836 6.15318 15.5419 5.978 16.2355 5.74442C16.2933 5.77362 16.2355 5.80281 16.2355 5.80281C17.2758 5.74442 18.2006 5.42325 18.8364 5.48165L18.6341 5.51084C19.5011 5.62763 20.8016 5.13128 21.0039 5.45245C21.4085 5.48165 20.108 5.51084 20.7438 5.62763C22.0154 5.62763 21.553 5.27727 22.6512 5.27727C22.5067 5.27727 22.5645 5.30646 22.5067 5.33566C23.287 5.24807 24.3563 5.13128 25.2233 5.01449C26.3215 5.18968 28.5179 4.66413 29.7895 4.86851C29.3849 4.78092 30.0785 4.72252 30.0785 4.66413C30.0785 4.66413 30.0207 4.69333 30.0785 4.72252C30.5409 4.69333 30.5698 4.57654 30.7432 4.51814C31.1189 4.57654 31.9859 4.31376 32.2171 4.34296C32.2171 4.28457 32.5928 4.25537 32.9685 4.22617C32.1593 4.37216 32.7084 4.40135 32.3616 4.54734C33.5753 4.48895 33.7198 4.10938 34.9625 4.05099L35.6561 4.13858C35.7717 3.9342 36.9566 3.905 36.9277 3.81741C37.1589 3.87581 37.4768 3.87581 37.419 3.9634C37.9103 3.87581 38.6617 3.905 38.864 3.75902H38.3727C39.9333 3.70062 40.8292 3.32106 42.043 3.35026V3.67143C42.8522 3.72982 43.488 3.37946 44.2105 3.49625C43.9504 3.40865 43.9215 3.43785 44.4128 3.29187C44.1238 3.29187 43.5458 3.43785 43.0545 3.46705L44.1527 3.17508L42.5054 3.40865C43.199 3.23347 43.1701 3.26267 42.8522 3.17508C43.8637 2.99989 43.9504 3.23347 44.9041 3.02909C45.2509 3.02909 44.9041 3.17508 45.3087 3.20427C46.1468 3.02909 46.956 3.29187 47.5629 3.05829C47.7652 3.05829 47.2161 3.08749 47.2739 3.17508C47.823 3.08749 48.2276 3.08749 48.3721 2.9707H47.8808C48.2854 2.9415 48.3432 2.82471 49.1524 2.82471C49.6148 2.70792 49.846 2.53274 49.3547 2.59114C49.557 2.56194 50.0194 2.59114 49.846 2.70792C51.0886 2.59114 50.424 2.32836 51.6088 2.35756C51.5222 2.38676 51.4354 2.38676 51.4932 2.41595C51.7822 2.41595 52.0423 2.38676 52.2446 2.35756C51.1754 2.47435 52.5914 2.56194 51.3487 2.62033C51.4932 2.76632 52.3024 2.56194 52.707 2.59114C53.3139 2.41595 52.7648 2.35756 53.0538 2.24077C53.0538 2.29916 53.3139 2.26997 53.6029 2.26997L53.3139 2.18238C53.574 2.15318 53.8052 2.15318 54.1231 2.09478L53.6318 2.18238C54.1809 2.15318 55.0479 2.26997 56.0016 2.06559C55.7415 2.12398 55.2502 2.26997 55.886 2.29916C56.9264 2.12398 56.1461 2.32836 56.753 2.35756C57.7934 2.24077 56.9264 2.12398 58.487 2.06559C58.6604 2.06559 58.487 2.00719 58.3136 1.978C59.3829 1.9488 59.9609 1.80281 60.9724 1.80281C60.51 1.80281 60.1632 1.80281 60.7701 1.68603C60.51 1.80281 61.6082 1.71522 62.0128 1.74442L62.0995 1.68603C62.4174 1.71522 62.0995 1.77362 61.8394 1.83201C61.8394 1.80281 61.7527 1.80281 61.5504 1.83201C61.0591 1.9196 61.2614 2.15318 62.0706 2.09478C62.9376 1.9488 62.7642 1.80281 62.6197 1.77362C63.7757 1.74442 63.6601 1.39406 64.7872 1.39406C65.0473 1.36486 65.8854 1.54004 66.6946 1.51084C67.0992 1.33566 65.6831 1.48165 66.1455 1.33566C66.7524 1.45245 67.3304 1.36486 67.9662 1.24807C68.284 1.18968 68.6019 1.13128 68.9487 1.07289L69.2089 1.04369C69.3533 1.01449 69.4978 1.01449 69.6423 0.985296C69.9314 0.956099 70.2492 0.926902 70.5382 0.897705C70.5671 1.24807 70.5671 1.59843 70.596 1.9488C70.5382 1.86121 70.4515 1.77362 70.3937 1.68603C70.4226 1.9488 70.4226 2.21157 70.4515 2.50354C70.4804 2.70792 70.4804 2.9415 70.5093 3.14588L70.5382 2.53274C70.6249 2.9415 70.6538 3.905 70.5093 3.61303C70.7405 4.51814 70.6538 4.72252 70.6827 5.59843C70.6249 4.69333 70.7116 5.56924 70.5671 4.9269C70.5671 5.89041 70.6249 5.9488 70.7116 6.62033C70.6538 6.50354 70.5671 6.88311 70.596 7.11668C70.7694 7.72982 70.8272 8.78092 70.9717 9.65683H70.9139C71.1162 11.0875 71.0006 12.6933 71.2896 14.1532C71.2896 14.1824 71.2896 14.2116 71.2896 14.2116V14.0948C71.4052 13.5692 71.4919 15.2335 71.6075 15.6714C71.5786 15.759 71.5208 15.8174 71.5208 16.0802C71.6653 16.0802 71.6364 16.6349 71.7231 16.8393C71.7231 17.3357 71.5497 16.7809 71.6075 17.6568C71.6364 17.978 71.7231 18.0072 71.7809 17.978C71.7231 18.1532 71.6942 18.7079 71.7231 19.1751C71.6653 19.0291 71.6942 18.7663 71.6942 18.6787C71.6075 18.6203 71.6653 18.9415 71.5497 18.9415C71.5786 19.3503 71.6942 19.0875 71.6942 19.613L71.5208 19.1459C71.5208 19.3503 71.5786 19.613 71.6075 19.7006C71.5786 19.5546 71.5208 19.4962 71.4919 19.4671L71.5497 20.051C71.6653 20.1386 71.752 19.7006 71.8676 19.759C71.8676 20.8685 72.0988 21.7444 72.1855 22.5911L72.041 22.4452C72.0988 22.8539 72.1566 23.0583 72.2144 23.2043L72.2722 23.8466C72.1855 23.4671 72.1277 23.3503 72.0121 23.3503C72.0988 24.0218 72.1566 24.9853 72.3589 25.1313L72.33 25.1021C72.33 26.0364 72.4745 27.9342 72.3878 27.8758C72.5323 28.8685 72.5323 30.124 72.7346 30.124C72.8213 30.7079 72.619 31.6714 72.908 32.0802C72.8502 32.7809 72.8502 32.1094 72.7057 31.9342C72.6479 32.6349 73.0236 33.3357 72.7635 33.5692C72.908 34.3868 72.7924 33.3649 72.9369 33.6276C72.7057 33.832 73.0236 35.1459 72.9658 35.905C73.1103 36.2262 72.9947 35.5546 73.1681 36.1386C73.1103 36.0802 73.1103 36.4014 73.1103 36.5473L73.2837 36.6933L73.0525 37.2481L73.1103 37.978C73.2259 38.124 73.2548 37.6276 73.3993 38.7955L73.3704 38.7079C73.2548 39.1167 73.5438 39.759 73.5438 40.7809C73.5149 40.5765 73.4571 40.7517 73.3993 40.6349L73.5149 41.2481C73.5149 41.1897 73.486 41.1605 73.486 41.2189C73.4282 41.7736 73.6016 41.686 73.5438 42.3284C73.5149 42.1532 73.486 42.0656 73.4571 42.0656L73.5438 42.9415L73.6016 43.1459L73.5438 43.0875L73.775 45.6276C73.7172 45.6276 73.6594 45.6568 73.6016 45.6568C73.5727 45.5692 73.5438 45.6568 73.5727 45.8028ZM35.0492 53.686C35.0781 53.7152 35.1937 53.7444 35.4538 53.686C35.5116 53.6568 35.5405 53.6276 35.5694 53.5984L35.5405 53.6276C35.3382 53.6276 35.1648 53.6568 35.0492 53.686ZM73.486 40.8393C73.4571 40.7517 73.4571 40.6641 73.4282 40.5765L73.4571 40.9269C73.486 40.8977 73.486 40.8685 73.486 40.8393ZM73.6594 40.6349C73.6594 40.6933 73.6594 40.7225 73.6594 40.7517C73.6594 40.6933 73.6594 40.6641 73.6594 40.6349ZM35.9451 53.4525C35.974 53.4525 36.0029 53.4233 36.0607 53.4233C36.0029 53.4233 35.9451 53.4233 35.8873 53.3941C35.8584 53.4233 35.8295 53.4233 35.8006 53.4525C35.8295 53.4525 35.8873 53.4525 35.9451 53.4525ZM71.3474 13.9196C71.3474 13.9488 71.3474 13.978 71.3474 14.0072C71.3474 13.978 71.3474 13.978 71.3474 13.978V13.9196ZM73.3704 35.5838C73.4282 34.1824 73.2837 35.8758 73.1681 34.4452L73.2259 35.5546C73.2548 35.3211 73.3126 35.0875 73.3704 35.5838ZM73.0525 30.9999C72.9658 30.6203 72.9369 30.5327 72.9369 30.9999C73.0236 31.5838 73.0236 30.9707 73.0525 30.9999ZM70.7983 6.24077L70.9428 6.29917C70.885 5.83201 70.885 6.26997 70.7983 6.24077ZM67.5327 1.01449L66.7813 1.13128L67.3304 1.04369L67.5327 1.01449ZM26.2059 4.72252L26.3504 4.86851C26.6394 4.83931 26.6972 4.63493 26.2059 4.72252ZM7.421 6.50354C7.8256 6.47435 8.2302 6.50354 8.4325 6.47435C8.2302 6.41595 7.7389 6.38676 7.421 6.50354ZM3.83742 53.1313L3.95302 53.8028L3.92412 53.4817L3.83742 53.1313ZM63.6601 4.34296C63.7468 4.48895 63.9202 4.48895 64.0647 4.48895C64.3248 4.48895 64.4404 4.22617 64.6716 4.16778C64.3826 4.13858 64.0647 3.78822 63.7179 4.02179C63.689 4.10938 63.5734 4.22617 63.6601 4.34296ZM66.2322 4.89771C66.3478 5.07289 66.4923 5.01449 66.6368 5.07289C66.8102 4.9853 67.0414 4.9269 67.0414 4.72252C66.8391 4.54734 66.579 4.45975 66.3189 4.57654C66.2322 4.66413 66.1744 4.75172 66.2322 4.89771ZM68.284 3.75902C68.3997 3.9342 68.5442 3.87581 68.6887 3.9342C68.862 3.84661 69.0932 3.78822 69.0932 3.58384C68.8909 3.40865 68.6308 3.32106 68.3708 3.43785C68.284 3.52544 68.2262 3.64223 68.284 3.75902ZM65.4519 6.09479C65.5097 6.18238 65.5675 6.21157 65.6831 6.24077C65.8565 6.26997 66.0588 6.21157 66.1166 6.06559C66.1455 5.83201 65.7698 5.80281 65.6253 5.86121C65.5097 5.86121 65.3941 5.9488 65.4519 6.09479ZM10.311 33.7736C10.889 33.7152 11.4092 33.6568 11.9005 33.5692C12.2762 33.6568 12.6519 33.5692 12.9987 33.4817C13.3744 33.1897 13.8079 33.4525 14.1547 33.2481C14.2125 33.1605 14.2992 33.0437 14.2125 32.9561C17.6226 31.613 18.6341 28.8101 18.2295 24.0802L17.0446 10.3576L9.87749 10.9999L11.1202 25.2189C11.3514 27.7298 10.4266 28.5181 8.2302 28.7225C7.5366 28.7809 6.72741 28.8101 6.03381 28.7809L6.46731 33.832C7.7678 33.9488 9.03939 33.8904 10.311 33.7736ZM32.6506 31.8466C37.7947 31.3795 41.1471 29.1605 42.9389 26.0948C43.2279 26.0656 43.5169 26.0364 43.7481 26.124C43.6903 26.0072 43.5458 25.978 43.5747 25.8028C43.7481 25.686 44.0082 25.7736 44.1238 25.5984C44.2683 25.6568 44.5284 25.7444 44.644 25.686C44.4706 25.6276 44.3261 25.3941 44.1238 25.4233C44.0371 25.4233 44.0949 25.3065 44.1238 25.2773C44.1527 24.9561 44.4995 25.2189 44.644 25.1313C44.6729 24.9853 44.4417 24.9269 44.3261 25.0145C44.1527 24.8685 44.4128 24.7225 44.3261 24.5765C44.4417 24.5181 44.5284 24.5181 44.644 24.5181C44.644 24.343 44.4706 24.4306 44.355 24.3722C44.355 24.3138 44.355 24.2262 44.3839 24.197C44.4706 24.2554 44.5573 24.2846 44.6729 24.2554C44.6729 23.9926 44.355 24.2554 44.2683 24.0802C44.6729 24.0218 44.2105 23.7006 44.5573 23.613C44.4417 23.613 44.355 23.7006 44.2105 23.6714C44.2105 23.467 44.6151 23.2627 44.5284 22.9415C44.5284 22.8831 44.4128 22.8831 44.3839 22.8247C44.3839 22.6495 44.4995 22.5619 44.6151 22.5035L44.5573 22.27C44.6729 22.27 44.7885 22.27 44.8463 22.1824C44.8752 21.9488 44.5284 21.8904 44.5573 21.686C44.4417 21.6568 44.5573 21.832 44.4417 21.832C44.4128 21.8612 44.355 21.832 44.3261 21.8028C44.3839 21.3649 44.4128 20.9269 44.4128 20.4889C44.4995 20.4014 44.5573 20.3138 44.6151 20.2262C44.5573 20.2846 44.4706 20.3138 44.4128 20.3722C44.4128 19.9342 44.4128 19.467 44.355 18.9999C44.066 15.759 42.621 12.8977 40.1934 10.9707C40.6558 10.8247 41.1182 10.6787 41.5806 10.6203C41.1182 10.7079 40.4535 10.2408 39.8755 10.0948C39.6154 10.0072 39.7599 9.77362 39.731 9.56924C40.1067 9.30647 40.5691 9.21887 40.9737 9.07289C40.9737 8.86851 40.8003 8.9561 40.7425 8.81011C40.4824 8.89771 40.3379 9.18968 39.9911 9.13128C39.9044 8.9853 39.6154 8.9269 39.8177 8.69333C39.4709 9.30647 38.7484 9.01449 38.286 9.39406C38.0837 9.36486 37.8814 9.21887 37.6502 9.30646C37.0433 9.24807 37.7658 8.83931 37.5924 8.60573C37.3612 8.63493 37.3901 8.9561 37.1878 8.9853C36.8988 8.9853 37.0433 8.72252 37.1011 8.57654C36.6387 9.16048 36.5231 8.45975 36.1185 8.9853C34.5579 8.54734 32.824 8.40135 30.8877 8.57654C22.5067 9.30646 18.7497 15.1459 19.2699 21.2773C19.8768 27.8174 24.7031 32.5473 32.6506 31.8466ZM26.8417 20.5181C26.5238 16.8977 27.6798 13.832 31.2056 13.5108C32.3905 13.3941 33.3731 13.6276 34.1533 14.0656C34.24 14.2992 34.4134 14.5327 34.6446 14.6495C34.7891 14.7371 34.9336 14.7663 35.0781 14.7955C36.1185 15.905 36.6676 17.6568 36.8699 19.7298C37.1589 23.0875 36.2919 26.416 32.5639 26.7663C28.9514 27.1167 27.1885 24.4014 26.8417 20.5181ZM60.1054 28.8977C66.2611 28.343 68.8331 25.3941 68.5153 21.54C68.284 18.7371 66.0588 17.2773 63.8335 16.7809C65.6253 15.9926 67.0414 14.3284 66.8391 11.759C66.7524 10.6495 66.3478 9.65683 65.6253 8.81011L65.7409 8.63493C65.8276 8.69333 65.9143 8.78092 66.001 8.78092C66.1744 8.63493 65.9721 8.37216 66.1455 8.19698C66.0877 8.08019 66.0299 8.28457 65.9432 8.22617C65.8276 8.19698 65.9143 7.75902 65.6831 7.64223C65.6253 7.46705 65.8276 7.49625 65.9143 7.40865C66.0299 7.52544 65.9721 7.67143 66.0588 7.81741L66.1166 7.58384C66.2033 7.37946 66.4634 7.61303 66.4634 7.37946C66.4345 7.35026 66.3767 7.35026 66.3767 7.32106C66.4056 7.35026 66.4345 7.40865 66.3767 7.43785C66.2611 7.40865 66.2611 7.29187 66.2322 7.26267C66.3478 7.23347 66.4345 7.37946 66.5212 7.32106L66.3478 7.20427C66.6079 7.26267 67.0125 7.23347 67.2148 7.20427C66.868 7.14588 66.4634 7.11668 66.1455 7.26267C65.8854 7.55464 65.7409 7.11668 65.5386 7.05829C65.4808 7.20427 65.3363 7.20427 65.2207 7.11668C65.134 6.9123 65.4808 7.02909 65.3941 6.82471C65.2496 6.88311 65.1629 6.9415 65.0762 7.02909L64.3826 6.88311C64.4404 6.79552 64.3537 6.67873 64.267 6.64953C64.2381 6.82471 64.2092 6.9415 64.0069 7.02909C63.9202 6.9999 63.8046 7.08749 63.7757 6.9415C63.8046 6.88311 63.8913 6.88311 63.8913 6.79552C63.4578 6.9415 62.9954 6.70792 62.5619 6.85391C62.4752 6.76632 62.5908 6.56194 62.4463 6.56194C62.4463 6.67873 62.3885 6.76632 62.3018 6.82471C62.2729 6.82471 62.2151 6.82471 62.1862 6.85391C61.1169 6.62033 59.8742 6.53274 58.4003 6.67873L44.8752 7.87581L46.7826 30.0656L60.1054 28.8977ZM56.2039 24.5765C56.2617 24.5765 56.3195 24.6057 56.3484 24.6349H56.2328C56.2039 24.6057 56.2039 24.5765 56.2039 24.5765ZM56.2906 24.5473C56.4929 24.6057 56.753 24.6057 56.9553 24.5765L56.4351 24.6349L56.2906 24.5473ZM61.0302 21.8612C61.1747 23.4962 60.1343 24.2846 58.2269 24.4597L56.9842 24.5765C57.042 24.5765 57.0998 24.5473 57.1576 24.5473C56.8108 24.4889 56.4062 24.4597 56.0883 24.6057C56.0594 24.6349 56.0305 24.6641 56.0016 24.6641L55.8282 24.6933C55.7126 24.6349 55.597 24.4598 55.4814 24.4014C55.4236 24.5473 55.2791 24.5473 55.1635 24.4597C55.0768 24.2554 55.4236 24.3722 55.3369 24.1678C55.1924 24.2262 55.1057 24.2846 55.019 24.3722L54.3254 24.2262C54.3832 24.1386 54.2965 24.0218 54.2098 23.9926C54.1809 24.1678 54.152 24.2846 53.9497 24.3722C53.863 24.343 53.7474 24.4306 53.7185 24.2846C53.7474 24.2262 53.8341 24.2262 53.8341 24.1386C53.6318 24.197 53.4295 24.197 53.2272 24.1678L52.8804 20.343L57.9668 19.905C59.9609 19.7298 60.9146 20.5181 61.0302 21.8612ZM57.0131 11.467C58.6026 11.3211 59.643 11.8758 59.7297 13.1897C59.7586 13.5984 59.7008 13.978 59.5274 14.3284C59.065 13.978 58.6026 13.6276 57.9668 13.6276C57.8223 13.6276 57.7645 13.7444 57.7645 13.8612C58.0246 14.3284 58.487 14.5035 58.9494 14.6787C59.0361 14.6787 59.1228 14.6787 59.2095 14.7079C58.8338 15.0583 58.2558 15.2919 57.331 15.3795L52.4758 15.8174L52.129 11.905L57.0131 11.467ZM13.9813 36.2554C13.9813 36.1678 14.0102 36.051 13.9813 35.9634C14.357 35.7006 14.8194 35.613 15.224 35.4671C15.224 35.2627 15.0506 35.3503 14.9928 35.2043C14.7327 35.2919 14.5882 35.5838 14.2414 35.5254C14.1547 35.3795 13.8657 35.3211 14.068 35.0875C13.7212 35.7006 12.9987 35.4087 12.5363 35.7882C12.334 35.759 12.1317 35.613 11.9005 35.7006C11.2936 35.6422 12.0161 35.2335 11.8427 34.9999C11.6115 35.0291 11.6404 35.3503 11.4381 35.3795C11.1491 35.3795 11.2936 35.1167 11.3514 34.9707C10.889 35.5838 10.7734 34.7663 10.311 35.4379C10.0509 35.759 9.58849 35.5546 9.58849 36.0802L9.38619 36.0218C9.21279 36.2262 9.12609 36.4889 9.15499 36.7225L6.69851 36.9269L7.9412 51.2627L15.0795 50.6203C19.6167 50.2116 22.5645 46.9707 22.1888 42.5327C21.9287 38.7663 19.0965 35.8466 13.9813 36.2554ZM14.3281 47.4379L12.334 47.613L11.6404 39.7006L13.6345 39.5254C16.1488 39.3211 17.218 40.8393 17.3914 43.0583C17.6226 45.7444 16.6111 47.2335 14.3281 47.4379ZM30.7721 34.4452C25.3678 34.9123 22.9113 38.7079 23.2581 42.6495C23.6338 46.8539 26.7261 49.9196 31.8703 49.4525C37.4479 48.9561 39.8177 45.2481 39.442 41.1897C39.1241 37.1313 35.9162 34.0072 30.7721 34.4452ZM31.8125 46.2116C29.5005 46.416 28.3445 44.6641 28.1133 42.1532C27.911 39.8174 28.6624 37.832 30.9455 37.6276C31.2056 37.5984 31.4657 37.6276 31.6969 37.6276C31.668 37.6568 31.6391 37.7152 31.668 37.7736C31.9281 38.2408 32.3905 38.416 32.8529 38.5911C33.2575 38.5619 33.4887 38.9123 33.8354 38.9999C34.2689 39.7006 34.529 40.6057 34.6157 41.686C34.7891 43.8174 34.2111 45.978 31.8125 46.2116ZM51.0887 32.9853C50.9442 32.9853 50.7708 32.9853 50.6263 33.0145C50.424 33.0437 50.2217 33.1313 50.0194 33.2481C49.9038 33.3357 49.9038 33.4525 49.9616 33.54C50.1928 33.6568 50.424 33.7152 50.6841 33.686L50.8286 35.5254C51.0309 37.8904 51.2332 40.4889 51.4932 41.832H51.4066C50.3084 40.051 49.0946 38.2992 45.511 33.4233L40.1356 33.8904L40.3668 36.6933C40.3379 36.6933 40.309 36.6933 40.2801 36.7225C40.1934 36.8101 40.1356 36.9269 40.1934 37.0437C40.2512 37.1313 40.3379 37.1605 40.3957 37.1605L41.3494 48.2554L45.511 47.8758L45.222 44.4014C44.9908 41.5984 44.7885 39.6714 44.5284 38.0364H44.5862C45.5977 39.7298 49.6148 45.5108 50.8864 47.4087L55.9438 46.9707L54.7011 32.6349L51.0887 32.9853ZM72.0699 45.2481C71.463 45.3065 70.8561 45.1605 70.2781 45.2189L70.4804 42.416L62.0128 43.1751L61.8105 40.7809L69.4111 40.1094L69.1221 36.7809L61.5215 37.4524L61.3481 35.4671L69.3533 34.7663L69.0644 31.467L56.5218 32.5765L57.7645 46.9123L69.5845 45.8612C70.018 46.0656 70.4804 45.978 70.9139 45.8612C71.2896 45.5692 71.7231 45.832 72.0699 45.6276C72.0988 45.4816 72.1855 45.3649 72.0699 45.2481Z" fill="#592C82"/>
</svg>
